<?xml version="1.0" standalone="no"?>
<!DOCTYPE svg PUBLIC "-//W3C//DTD SVG 20010904//EN"
 "http://www.w3.org/TR/2001/REC-SVG-20010904/DTD/svg10.dtd">
<svg version="1.0" xmlns="http://www.w3.org/2000/svg"
 width="192.000000pt" height="192.000000pt" viewBox="0 0 192.000000 192.000000"
 preserveAspectRatio="xMidYMid meet">
<metadata>
Created by potrace 1.11, written by Peter Selinger 2001-2013
</metadata>
<g transform="translate(0.000000,192.000000) scale(0.100000,-0.100000)"
fill="#000000" stroke="none">
<path d="M922 1913 c-20 -8 -42 -59 -42 -97 0 -46 41 -96 80 -96 39 0 80 50
80 96 0 79 -54 123 -118 97z"/>
<path d="M26 1549 c-74 -87 18 -225 99 -149 31 29 40 71 25 115 -23 68 -82 85
-124 34z"/>
<path d="M1803 1565 c-27 -19 -46 -76 -38 -114 3 -16 17 -39 30 -51 81 -76
173 62 99 149 -28 34 -58 39 -91 16z"/>
<path d="M826 1177 c-71 -188 -131 -345 -135 -349 -3 -4 -134 85 -289 199
-156 113 -284 204 -286 202 -2 -2 49 -280 113 -617 l116 -612 614 2 615 3 117
610 c64 336 115 612 113 614 -1 1 -130 -90 -286 -203 -155 -113 -285 -202
-289 -198 -4 4 -64 161 -135 349 -71 189 -131 343 -134 343 -3 0 -63 -154
-134 -343z"/>
</g>
</svg>
